<svg width="29" height="28" viewBox="0 0 29 28" fill="none" xmlns="http://www.w3.org/2000/svg">
<path d="M14.6008 27C21.7804 27 27.6008 21.1796 27.6008 14C27.6008 6.82029 21.7804 1 14.6008 1C7.42106 1 1.60077 6.82029 1.60077 14C1.60077 21.1796 7.42106 27 14.6008 27Z" stroke="#1A2813" stroke-width="2"/>
<path fill-rule="evenodd" clip-rule="evenodd" d="M12.9759 10.7499C12.9759 12.5976 12.3767 14.0955 11.6376 14.0955C10.8985 14.0955 10.2994 12.5976 10.2994 10.7499C10.2994 8.90216 10.8985 7.4043 11.6376 7.4043C12.3767 7.4043 12.9759 8.90216 12.9759 10.7499ZM18.9023 10.7499C18.9023 12.5976 18.3032 14.0955 17.5641 14.0955C16.825 14.0955 16.2259 12.5976 16.2259 10.7499C16.2259 8.90216 16.825 7.4043 17.5641 7.4043C18.3032 7.4043 18.9023 8.90216 18.9023 10.7499ZM20.7266 18.0013L21.2025 18.6974C21.3218 18.8717 21.5478 18.9009 21.7072 18.7625L21.8821 18.6109C22.0418 18.4725 22.0744 18.2191 21.9553 18.0447L20.6475 16.1317C20.5284 15.9574 20.3024 15.9282 20.1428 16.0665L19.968 16.2182C19.8084 16.3566 19.7757 16.61 19.8949 16.7843L20.2298 17.2744C18.7102 18.6523 16.7446 19.4866 14.5858 19.4866C12.4414 19.4866 10.4875 18.6633 8.972 17.3017L9.32565 16.7843C9.44483 16.61 9.41208 16.3566 9.25255 16.2182L9.07758 16.0665C8.91803 15.9282 8.6921 15.9574 8.57292 16.1317L7.26515 18.0447C7.14599 18.2191 7.17872 18.4725 7.33828 18.6109L7.51323 18.7625C7.67278 18.9009 7.89873 18.8717 8.01789 18.6974L8.47515 18.0285C10.1331 19.5123 12.2628 20.4043 14.5858 20.4043C16.923 20.4043 19.0645 19.5014 20.7266 18.0013Z" fill="#1A2813"/>
</svg>
