<svg width="98" height="25" viewBox="0 0 98 25" fill="none" xmlns="http://www.w3.org/2000/svg">
<path d="M37.5765 6.84302V24.5067H33.2738V17.2348H26.5806V24.5067H22.2778V6.84302H26.5806V13.7626H33.2738V6.84302H37.5765Z" fill="white" fill-opacity="0.9"/>
<path d="M41.8409 9.00674C41.086 9.00674 40.4654 8.7887 39.9791 8.35255C39.5093 7.89962 39.2744 7.34609 39.2744 6.69191C39.2744 6.02093 39.5093 5.46733 39.9791 5.03118C40.4654 4.57824 41.086 4.35181 41.8409 4.35181C42.5791 4.35181 43.1831 4.57824 43.6526 5.03118C44.1392 5.46733 44.3824 6.02093 44.3824 6.69191C44.3824 7.34609 44.1392 7.89962 43.6526 8.35255C43.1831 8.7887 42.5791 9.00674 41.8409 9.00674ZM43.9798 10.4661V24.5066H39.6771V10.4661H43.9798Z" fill="white" fill-opacity="0.9"/>
<path d="M53.9166 20.8586V24.5069H51.727C50.1671 24.5069 48.9514 24.1294 48.0791 23.3748C47.2067 22.603 46.7706 21.3535 46.7706 19.6255V14.0395H45.0596V10.4666H46.7706V7.04443H51.073V10.4666H53.8914V14.0395H51.073V19.6758C51.073 20.0954 51.1738 20.3971 51.3752 20.5816C51.5767 20.7662 51.9117 20.8586 52.3818 20.8586H53.9166Z" fill="white" fill-opacity="0.9"/>
<path d="M68.542 17.2601C68.542 17.6627 68.5168 18.0822 68.4665 18.5183H58.7292C58.7964 19.3906 59.0726 20.0615 59.5595 20.5313C60.0625 20.9842 60.6745 21.2108 61.3957 21.2108C62.4695 21.2108 63.2159 20.7576 63.6356 19.8518H68.2146C67.9803 20.7745 67.5522 21.6048 66.9317 22.3429C66.3281 23.081 65.5649 23.6599 64.6422 24.0791C63.7196 24.4986 62.6878 24.7083 61.5468 24.7083C60.1716 24.7083 58.9467 24.4146 57.8737 23.8276C56.7999 23.2404 55.9612 22.4018 55.3568 21.3114C54.7531 20.221 54.4517 18.946 54.4517 17.4868C54.4517 16.0271 54.7447 14.7524 55.3324 13.6621C55.936 12.5717 56.7747 11.7329 57.8485 11.1458C58.9215 10.5587 60.1548 10.2651 61.5468 10.2651C62.906 10.2651 64.1134 10.5503 65.1703 11.1206C66.2273 11.691 67.0493 12.5046 67.6361 13.5614C68.2398 14.6182 68.542 15.8511 68.542 17.2601ZM64.1385 16.128C64.1385 15.3898 63.8875 14.8027 63.3838 14.3665C62.8808 13.9305 62.2512 13.7124 61.4972 13.7124C60.7753 13.7124 60.1632 13.922 59.6595 14.3414C59.1734 14.7608 58.8712 15.3563 58.7544 16.128H64.1385Z" fill="white" fill-opacity="0.9"/>
<path d="M68.9502 17.4864C68.9502 16.0268 69.2432 14.7521 69.8309 13.6617C70.4345 12.5713 71.2649 11.7326 72.3219 11.1455C73.3949 10.5584 74.6198 10.2649 75.995 10.2649C77.7564 10.2649 79.2239 10.7262 80.3985 11.6487C81.5898 12.5713 82.3697 13.8714 82.7383 15.5489H78.1593C77.7732 14.4753 77.0268 13.9385 75.9194 13.9385C75.1311 13.9385 74.5022 14.2489 74.0329 14.8695C73.5628 15.4734 73.3277 16.3457 73.3277 17.4864C73.3277 18.6271 73.5628 19.5078 74.0329 20.1284C74.5022 20.7322 75.1311 21.0342 75.9194 21.0342C77.0268 21.0342 77.7732 20.4976 78.1593 19.4237H82.7383C82.3697 21.0679 81.5898 22.3595 80.3985 23.2987C79.2072 24.2382 77.7396 24.708 75.995 24.708C74.6198 24.708 73.3949 24.4142 72.3219 23.8274C71.2649 23.2401 70.4345 22.4015 69.8309 21.311C69.2432 20.2207 68.9502 18.9457 68.9502 17.4864Z" fill="white" fill-opacity="0.9"/>
<path d="M92.6658 10.3153C94.2761 10.3153 95.5674 10.8521 96.5404 11.9257C97.5134 12.9825 98.0003 14.4419 98.0003 16.3039V24.5066H93.7228V16.8825C93.7228 15.9433 93.4793 15.2135 92.9924 14.6935C92.5063 14.1735 91.8523 13.9135 91.0296 13.9135C90.2084 13.9135 89.5536 14.1735 89.0675 14.6935C88.5806 15.2135 88.3379 15.9433 88.3379 16.8825V24.5066H84.0352V5.88672H88.3379V12.3534C88.7737 11.7327 89.3689 11.2379 90.1245 10.8689C90.8792 10.4998 91.7263 10.3153 92.6658 10.3153Z" fill="white" fill-opacity="0.9"/>
<path d="M0 15.2737V0H5.09231V7.85146C5.98109 7.50834 6.94695 7.32022 7.9567 7.32022C12.3511 7.32022 15.9134 10.8826 15.9134 15.277V24.5067H10.8212V15.277C10.8212 13.695 9.53867 12.4126 7.9567 12.4126C6.37542 12.4126 5.09338 13.6939 5.09231 15.2749C5.09231 15.2756 5.09231 15.2763 5.09231 15.277V24.5067H0V15.277C0 15.2759 0 15.2748 0 15.2737Z" fill="white" fill-opacity="0.9"/>
<path d="M10.8218 5.09231V0H15.914V5.09231H10.8218Z" fill="white" fill-opacity="0.9"/>
</svg>
