<svg width="140" height="29" viewBox="0 0 140 29" fill="none" xmlns="http://www.w3.org/2000/svg">
<path d="M56.2282 23.3651C55.8407 23.033 55.6184 22.6849 55.5979 22.3193L56.2282 23.3651ZM56.2282 23.3651L56.2302 23.3667C56.6514 23.7115 57.245 23.8759 57.9951 23.8759H59.6367H59.7464V23.7662V23.5509V23.4413H59.6367H58.8123L58.5261 23.3892L58.521 23.3882L58.5154 23.3879C58.3448 23.3735 58.155 23.258 57.9486 23.001C57.7702 22.7393 57.6741 22.3619 57.6741 21.8553V13.4316C57.6741 12.5333 57.4445 11.7895 56.9771 11.2096L56.9757 11.2078C56.6697 10.8444 56.1898 10.5757 55.5509 10.393C54.9262 10.1912 54.1155 10.0922 53.1238 10.0922C52.1092 10.0922 51.179 10.4433 50.3361 11.1396C49.6621 11.6819 49.1552 12.263 48.8198 12.8836V10.3097V10.1999H48.7098H46.826H46.7163V10.3097V23.7662V23.8759H46.826H48.7098H48.8198V23.7662V14.2121C48.8198 13.54 49.2503 12.7597 50.1593 11.8683L50.1603 11.8675C51.0576 10.9701 52.062 10.527 53.1775 10.527C53.7215 10.527 54.1698 10.6147 54.5273 10.7844C55.2059 11.1499 55.5709 11.9998 55.5709 13.4047V21.8553V21.8586V21.8618L55.5979 22.3189L56.2282 23.3651ZM45.0197 6.15979L45.121 6.19866L45.161 6.09811L45.2688 5.829L45.3121 5.72088L45.2017 5.68411C43.3612 5.07063 41.5464 4.76343 39.7573 4.76343C37.9838 4.76343 36.6337 5.17938 35.7263 6.03074C34.8225 6.86101 34.3725 7.95001 34.3725 9.28695C34.3725 10.9738 35.0722 12.2823 36.4666 13.1999C37.082 13.6161 37.7598 13.9956 38.4999 14.3385L38.5022 14.3395C39.238 14.6626 39.965 14.9768 40.6832 15.2819L40.6843 15.2823C41.4155 15.5856 42.0839 15.9154 42.6889 16.2713C44.0234 17.0615 44.6804 18.149 44.6804 19.5407C44.6804 20.8158 44.1767 21.7759 43.1691 22.4362C42.1676 23.0864 40.9512 23.4142 39.5151 23.4142C38.5396 23.4142 37.5818 23.2726 36.6415 22.9887C35.7178 22.6866 34.968 22.3063 34.3888 21.8498L34.2927 21.7742L34.2276 21.8781L34.0931 22.0933L34.0381 22.1816L34.1231 22.2415C35.7054 23.3507 37.6124 23.9029 39.8381 23.9029C41.03 23.9029 42.0732 23.7675 42.9652 23.4943L42.9665 23.494C43.8857 23.2 44.6661 22.6481 45.3065 21.8429C45.9515 21.0323 46.2725 20.0565 46.2725 18.9219C46.2725 17.7806 46.0824 16.8376 45.6949 16.0992C45.3108 15.3495 44.8058 14.7606 44.1787 14.3364C43.5627 13.9198 42.8842 13.5488 42.1428 13.2234C41.4051 12.8995 40.667 12.6115 39.9288 12.3594C39.2152 12.0917 38.5559 11.8065 37.9503 11.5038C36.6157 10.8011 35.9646 9.82095 35.9646 8.56028C35.9646 7.51563 36.3543 6.70581 37.1322 6.11802C37.9139 5.52726 39.0088 5.22513 40.4303 5.22513C41.8674 5.22513 43.3973 5.5357 45.0197 6.15979ZM60.3214 11.9814L60.3211 11.9819C59.0754 13.246 58.4594 15.0173 58.4594 17.2802C58.4594 19.5411 59.0565 21.2358 60.2716 22.3405C61.4795 23.4383 63.0413 23.9837 64.9476 23.9837C66.8754 23.9837 68.4655 23.355 69.7083 22.0943C70.9722 20.8304 71.5975 19.0589 71.5975 16.7957C71.5975 14.5348 71.0003 12.8401 69.7851 11.7355C68.5768 10.6373 67.0059 10.0922 65.082 10.0922C63.1716 10.0922 61.5817 10.7211 60.3214 11.9814ZM61.8328 12.313L61.8334 12.3124C62.7125 11.1169 63.8113 10.527 65.1358 10.527C66.4671 10.527 67.5294 11.0329 68.3333 12.0465C69.1362 13.0587 69.5474 14.635 69.5474 16.7957C69.5474 18.9347 69.1017 20.5953 68.2236 21.7899C67.3449 22.9675 66.2457 23.549 64.9206 23.549C63.5896 23.549 62.5269 23.043 61.723 22.0295C60.9201 21.017 60.5089 19.4496 60.5089 17.3071C60.5089 15.1495 60.9549 13.4894 61.8328 12.313ZM89.9338 10.3935L89.8542 10.4737L89.9369 10.5512C90.1953 10.7935 90.3327 11.1551 90.3327 11.6553C90.3327 12.1603 90.2281 12.5893 90.0236 12.9465L90.022 12.9506L90.0197 12.955L86.2286 21.1654L82.2025 10.2716L82.176 10.1999H82.0995H80.2157H80.058L80.1126 10.3474L81.0924 13.0231L77.3466 21.1651L73.3213 10.2716L73.294 10.1999H73.2175H71.3336H71.1759L71.2314 10.3479L76.2372 23.8046L76.2638 23.8759H76.3395H76.6088H76.6799L76.7088 23.8118L81.3352 13.6383L85.1184 23.8046L85.145 23.8759H85.2215H85.4901H85.5611L85.59 23.8118L90.4889 13.0464L90.4897 13.0442C90.7098 12.5299 90.8214 12.0218 90.8214 11.5208C90.8214 11.3866 90.8027 11.2451 90.766 11.0967C90.7434 10.9315 90.6622 10.7564 90.5341 10.5728C90.4795 10.4819 90.428 10.406 90.3788 10.347C90.3304 10.289 90.2781 10.2395 90.2219 10.2115L90.1516 10.1761L90.0954 10.232L89.9338 10.3935Z" fill="white" stroke="white" stroke-opacity="0.9" stroke-width="0.281209"/>
<path d="M94.9895 5.12153C95.4946 4.34731 96.3143 3.74758 97.451 3.69449L97.2137 22.0426V22.0438C97.2137 22.2099 97.2652 22.3883 97.3597 22.5775C97.8015 23.4614 98.8555 23.8759 100.445 23.8759H101.28H101.39V23.7662V23.5509V23.4413H101.28H100.455L100.169 23.3892L100.164 23.3882L100.158 23.3879C99.9875 23.3735 99.7978 23.2579 99.5917 23.001C99.4129 22.7393 99.3169 22.3619 99.3169 21.8553V3.60822V3.50025L99.2091 3.49846L97.5642 3.47152L97.4541 3.46973V3.47301C95.6125 3.50619 94.2501 3.93924 93.3945 4.79512C92.5201 5.65123 92.097 7.07827 92.097 9.0447V10.1999H91.6418H91.5317V10.3096V10.7444V10.8543H91.6418H92.097V23.7662V23.8759H92.207H94.0909H94.2002V23.7662V10.8543H96.2167H96.326V10.7444V10.3096V10.1999H96.2167H94.2002V9.0447C94.2002 7.20178 94.4695 5.90176 94.9895 5.12247V5.12153ZM109.321 17.1875C108.954 17.1581 108.551 17.1435 108.112 17.1435C107.624 17.1435 107.092 17.1705 106.516 17.2246C105.355 17.2966 104.395 17.4318 103.636 17.6315C102.88 17.8309 102.315 18.0971 101.954 18.4385C101.607 18.7669 101.384 19.08 101.305 19.378C101.23 19.6547 101.193 19.9155 101.193 20.1601C101.193 20.3811 101.212 20.6022 101.248 20.8229C101.404 21.8651 101.811 22.6602 102.479 23.1928C103.146 23.7245 104.06 23.9837 105.205 23.9837C106.189 23.9837 107.046 23.7809 107.769 23.3706C108.387 23.0202 108.904 22.5214 109.321 21.8768V22.0438C109.321 22.3792 109.557 22.7474 109.972 23.1443C110.454 23.6438 111.328 23.8759 112.553 23.8759H113.387H113.497V23.7662V23.5509V23.4413H113.387H112.562L112.276 23.3892L112.271 23.3882L112.266 23.3879C112.095 23.3735 111.906 23.2579 111.699 23.001C111.52 22.7393 111.424 22.3619 111.424 21.8553V12.8395C111.424 12.2328 111.177 11.6605 110.697 11.1247C110.382 10.7715 109.907 10.5143 109.285 10.345C108.662 10.1756 107.884 10.0922 106.954 10.0922C105.287 10.0922 103.647 10.4639 102.038 11.2058L101.928 11.2559L101.988 11.3599L102.095 11.5482L102.15 11.6432L102.245 11.5894C102.645 11.3632 103.28 11.1328 104.157 10.9002L104.158 10.8998C105.05 10.6503 105.819 10.527 106.47 10.527C107.125 10.527 107.648 10.6159 108.041 10.7871V10.7871L108.045 10.7886C108.448 10.9463 108.712 11.1331 108.856 11.341C109.012 11.5668 109.133 11.8005 109.22 12.0421L109.222 12.0467L109.223 12.0512C109.326 12.2732 109.352 12.4441 109.324 12.5721C109.305 12.6461 109.294 12.712 109.294 12.7654C109.294 12.7923 109.297 12.8227 109.307 12.8518C109.311 12.8611 109.315 12.8709 109.321 12.8806V17.1875ZM103.35 20.7966V20.7949C103.332 20.6181 103.323 20.4605 103.323 20.3215C103.323 19.5512 103.525 18.9615 103.914 18.5387C104.103 18.3331 104.409 18.1525 104.844 18.003C105.278 17.8539 105.833 17.7386 106.509 17.6584C106.99 17.605 107.47 17.5784 107.951 17.5784C108.415 17.5784 108.872 17.5937 109.321 17.6246V20.7741C109.269 21.3402 108.883 21.9514 108.121 22.6065C107.387 23.2361 106.559 23.549 105.636 23.549C104.945 23.549 104.42 23.3214 104.045 22.8747C103.666 22.4238 103.43 21.7361 103.35 20.7966ZM115.785 3.58129V3.47152H115.675H113.791H113.682V3.58129V23.7662V23.8759H113.791H115.675H115.785V23.7662V17.3213L116.391 16.6253L121.29 23.828L121.322 23.8759H121.381H123.265H123.472L123.355 23.7047L117.617 15.2705L121.948 10.3824L122.109 10.1999H121.865H121.596H121.547L121.514 10.2368L115.785 16.695V3.58129ZM133.821 22.808L133.779 22.711L133.681 22.7487C132.296 23.2814 130.713 23.549 128.93 23.549C127.691 23.549 126.692 23.0457 125.922 22.0318C125.172 21.0192 124.787 19.4156 124.787 17.1994C124.787 16.7178 124.811 16.252 124.857 15.802H134.366H134.476V15.6923V15.6917V15.6913V15.6907V15.6902V15.6896V15.6891V15.6886V15.6881V15.6876V15.687V15.6865V15.6859V15.6855V15.6849V15.6844V15.6839V15.6834V15.6828V15.6823V15.6817V15.6813V15.6807V15.6802V15.6797V15.6792V15.6786V15.6781V15.6776V15.677V15.6765V15.676V15.6755V15.6749V15.6744V15.6738V15.6734V15.6728V15.6723V15.6718V15.6713V15.6707V15.6702V15.6697V15.6692V15.6686V15.6681V15.6676V15.6671V15.6665V15.666V15.6655V15.6649V15.6645V15.6639V15.6634V15.6628V15.6623V15.6618V15.6613V15.6607V15.6602V15.6597V15.6592V15.6586V15.6582V15.6576V15.6571V15.6565V15.656V15.6555V15.655V15.6545V15.6539V15.6534V15.6528V15.6523V15.6518V15.6513V15.6507V15.6503V15.6497V15.6492V15.6486V15.6482V15.6476V15.6471V15.6466V15.6461V15.6455V15.645V15.6444V15.6439V15.6434V15.6429V15.6423V15.6418V15.6413V15.6407V15.6403V15.6397V15.6392V15.6386V15.6382V15.6376V15.6371V15.6366V15.6361V15.6355V15.635V15.6344V15.634V15.6334V15.6329V15.6324V15.6318V15.6313V15.6308V15.6303V15.6297V15.6292V15.6287V15.6282V15.6276V15.6271V15.6266V15.6261V15.6255V15.6251V15.6245V15.624V15.6234V15.6229V15.6224V15.6219V15.6213V15.6208V15.6203V15.6197V15.6192V15.6187V15.6182V15.6176V15.6171V15.6165V15.6161V15.6155V15.615V15.6145V15.614V15.6134V15.6129V15.6124V15.6119V15.6113V15.6108V15.6103V15.6098V15.6092V15.6087V15.6082V15.6076V15.6072V15.6066V15.6061V15.6055V15.605V15.6045V15.604V15.6034V15.603V15.6024V15.6019V15.6013V15.6009V15.6003V15.5998V15.5993V15.5987V15.5982V15.5977V15.5972V15.5966V15.5961V15.5956V15.595V15.5945V15.594V15.5934V15.593V15.5924V15.5919V15.5913V15.5909V15.5903V15.5898V15.5893V15.5888V15.5882V15.5877V15.5871V15.5866V15.5861V15.5855V15.5851V15.5845V15.584V15.5834V15.583V15.5824V15.5819V15.5814V15.5809V15.5803V15.5798V15.5793V15.5788V15.5782V15.5777V15.5771V15.5767V15.5761V15.5756V15.5751V15.5745V15.574V15.5734V15.573V15.5724V15.5719V15.5714V15.5709V15.5703V15.5698V15.5693V15.5688V15.5682V15.5678V15.5672V15.5667V15.5661V15.5656V15.5651V15.5646V15.564V15.5635V15.563V15.5624V15.5619V15.5614V15.5609V15.5603V15.5599V15.5593V15.5588V15.5582V15.5577V15.5572V15.5567V15.5561V15.5556V15.5551V15.5546V15.554V15.5535V15.553V15.5525V15.552V15.5514V15.5509V15.5503V15.5499V15.5493V15.5488V15.5482V15.5477V15.5472V15.5467V15.5461V15.5457V15.5451V15.5446V15.544V15.5435V15.543V15.5425V15.542V15.5414V15.5409V15.5403V15.5399V15.5393V15.5388V15.5383V15.5378V15.5372V15.5367V15.5361V15.5357V15.5351V15.5346V15.5341V15.5336V15.533V15.5325V15.532V15.5314V15.5309V15.5304V15.5299V15.5293V15.5288V15.5282V15.5278V15.5272V15.5267V15.5261V15.5257V15.5251V15.5246V15.5241V15.5236V15.523V15.5225V15.522V15.5215V15.5209V15.5204V15.5199V15.5193V15.5188V15.5183V15.5178V15.5172V15.5167V15.5162V15.5157V15.5151V15.5146V15.5141V15.5136V15.513V15.5126V15.512V15.5115V15.5109V15.5104V15.5099V15.5094V15.5088V15.5083V15.5078V15.5072V15.5067V15.5062V15.5057V15.5051V15.5046V15.5041V15.5036V15.503V15.5026V15.502V15.5015V15.5009V15.5005V15.4999V15.4994V15.4988V15.4983V15.4978V15.4973V15.4967V15.4962V15.4957V15.4951V15.4947V15.4941V15.4936V15.493V15.4926V15.492V15.4915V15.491V15.4905V15.4899V15.4894V15.4888V15.4884V15.4878V15.4873V15.4868V15.4862V15.4857V15.4852V15.4847V15.4841V15.4836V15.4831V15.4826V15.482V15.4815V15.481V15.4805V15.4799V15.4794V15.4788V15.4784V15.4778V15.4773V15.4768V15.4763V15.4757V15.4752V15.4747V15.4741V15.4736V15.4731V15.4726V15.472V15.4715V15.4709V15.4705V15.4699V15.4694V15.4689V15.4684V15.4678V15.4673V15.4668V15.4663V15.4657V15.4652V15.4647V15.4642V15.4636V15.4631V15.4626V15.462V15.4616V15.4609V15.4605V15.4599V15.4594V15.4589V15.4584V15.4578V15.4573V15.4568V15.4563V15.4557V15.4553V15.4547V15.4542V15.4536V15.4531V15.4526V15.4521V15.4516V15.451V15.4505V15.4499V15.4494V15.4489V15.4484V15.4478V15.4474V15.4468V15.4463V15.4457V15.4453V15.4447V15.4442V15.4437V15.4431V15.4426V15.4421V15.4415V15.441V15.4405V15.44V15.4395V15.4389V15.4384V15.4378V15.4374V15.4368V15.4363V15.4357V15.4353V15.4347V15.4342V15.4337V15.4332V15.4326V15.4321V15.4315V15.4311V15.4305V15.43V15.4295V15.4289V15.4284V15.4278V15.4274V15.4268V15.4263V15.4258V15.4253V15.4247V15.4242V15.4237V15.4232C134.476 13.6788 133.967 12.3439 132.931 11.4381C131.904 10.5396 130.64 10.0922 129.145 10.0922C127.287 10.0922 125.751 10.7219 124.544 11.9831C123.335 13.2473 122.737 15.0181 122.737 17.2802C122.737 19.5398 123.307 21.2338 124.467 22.3385C125.621 23.4377 127.112 23.9837 128.93 23.9837C130.753 23.9837 132.39 23.704 133.841 23.142L133.946 23.101L133.902 22.9965L133.821 22.808ZM131.454 11.723C132.064 12.5032 132.394 13.7117 132.425 15.3672H124.911C125.134 13.8629 125.624 12.6888 126.374 11.8359C127.164 10.9577 128.051 10.527 129.037 10.527C130.025 10.527 130.828 10.9234 131.454 11.723Z" fill="white" stroke="white" stroke-opacity="0.9" stroke-width="0.281209"/>
<path d="M136.85 3.29907V4.01005H136.042V6.17329H135.275V4.01005H134.466V3.29907H136.85Z" fill="white"/>
<path d="M140 3.25586V6.18614H139.232V4.76409L138.67 5.43206H138.441L137.879 4.76409V6.18614H137.111V3.25586H137.382L138.556 4.50552L139.729 3.25586H140Z" fill="white"/>
<path fill-rule="evenodd" clip-rule="evenodd" d="M13.1801 19.0847L13.1684 28.3256L15.1218 28.3281L15.1336 19.0441L18.6972 27.6171L20.501 26.8673L16.9619 18.3531L23.4732 24.8812L24.8563 23.5014L18.3171 16.9455L26.8697 20.495L27.6182 18.6906L19.0647 15.1407H28.3257V13.1873H19.087L27.6264 9.66052L26.8804 7.855L18.3777 11.3667L24.9159 4.89529L23.5419 3.50682L16.9224 10.0585L20.4896 1.45514L18.6849 0.707001L15.146 9.24238L15.1577 0.00241973L13.2043 0L13.1925 9.28493L9.62852 0.711139L7.82471 1.461L11.3635 9.97429L4.85259 3.44679L3.4695 4.82644L10.009 11.3825L1.45624 7.83299L0.707469 9.63726L9.26143 13.1873H0V15.1407H9.23942L0.699818 18.6677L1.44546 20.4731L9.9479 16.9617L3.40986 23.433L4.78404 24.8213L11.4031 18.27L7.83627 26.8727L9.64077 27.621L13.1801 19.0847Z" fill="white"/>
</svg>
