<svg width="115" height="37" viewBox="0 0 115 37" fill="none" xmlns="http://www.w3.org/2000/svg">
<path d="M22.9553 23.2276H25.9761V20.2568C24.4896 20.0842 22.9546 20.5056 22.9546 22.1639L22.9553 23.2276Z" fill="white" fill-opacity="0.9"/>
<path d="M19.1491 24.1447C15.9543 24.216 14.3452 25.259 14.3452 28.478V36.3767H17.366V28.478C17.366 26.9679 17.9363 26.7441 19.0999 26.6956C19.8421 26.6464 20.1037 26.7947 20.7724 26.4232C21.392 26.101 21.6387 25.3331 21.6144 24.2445C20.7967 24.1946 20.1394 24.1204 19.1498 24.1454" fill="white" fill-opacity="0.9"/>
<path d="M3.11986 26.7696V22.4106H7.00758C8.74147 22.4106 9.18635 23.0309 9.18635 24.5652C9.18635 26.1251 8.69085 26.7696 7.00758 26.7696H3.11986ZM12.7283 31.6219C12.7283 28.9969 11.5876 28.0821 10.079 27.7599C11.3423 27.2145 12.2827 26.4466 12.2827 24.1688C12.2827 20.9755 10.7719 19.8362 7.6528 19.8362H0V36.3766H7.97433C10.9687 36.3766 12.7283 35.1881 12.7283 31.6219ZM3.11986 29.2692H7.45317C9.13644 29.2692 9.60699 29.9144 9.60699 31.4979C9.60699 33.1099 9.08796 33.8014 7.45317 33.8014H3.11986V29.2692Z" fill="white" fill-opacity="0.9"/>
<path d="M38.7379 23.2276H41.7551V20.2568C40.2701 20.0842 38.7344 20.5056 38.7344 22.1639L38.7379 23.2276Z" fill="white" fill-opacity="0.9"/>
<path d="M41.7588 24.293H38.7124V36.3767H41.7588V24.293Z" fill="white" fill-opacity="0.9"/>
<path d="M62.929 24.1439C61.3192 24.1439 59.2894 24.9609 58.0261 25.5063V19.4726C56.5396 19.2994 55.0039 19.72 55.0039 21.3798V36.3767H58.0275V27.9574C59.2863 27.4077 60.6229 27.0568 61.9894 26.9172C62.175 26.8991 62.3624 26.9216 62.5385 26.9829C62.7147 27.0443 62.8754 27.1431 63.0096 27.2727C63.1438 27.4022 63.2483 27.5593 63.3159 27.7332C63.3835 27.9071 63.4125 28.0935 63.401 28.2797V36.3767H66.4232V28.1777C66.4232 25.5527 65.4814 24.1403 62.9298 24.1403" fill="white" fill-opacity="0.9"/>
<path d="M25.9761 24.293H22.9546V36.3767H25.9761V24.293Z" fill="white" fill-opacity="0.9"/>
<path d="M32.8029 26.6949H34.9568C36.5416 26.6949 37.1362 25.977 36.9887 24.293H32.8029V20.257C31.3172 20.0837 29.7815 20.5058 29.7815 22.1641V24.293H27.5278V26.6949H29.7815V32.1668C29.7815 35.1883 31.0199 36.5008 34.1654 36.5008C35.0184 36.4994 35.8703 36.4416 36.7156 36.3276L36.6443 33.9256C36.074 33.9763 35.232 34.024 34.5397 34.024C33.3754 34.024 32.8058 33.6283 32.8058 32.3422L32.8029 26.6949Z" fill="white" fill-opacity="0.9"/>
<path d="M46.411 27.6359C46.411 26.8681 47.0056 26.5964 47.7485 26.5964C49.0119 26.5964 50.1725 26.6456 50.9183 26.6677C52.28 26.7169 52.9488 25.9747 52.8739 24.3863C51.9585 24.2872 49.8531 24.1382 48.12 24.1382C45.4215 24.1382 43.4395 25.1548 43.4395 27.6544C43.4395 30.2539 44.9003 30.9483 47.5746 31.3931C49.9986 31.7888 50.4977 31.9635 50.4977 32.8048C50.4977 33.8214 49.3569 33.9697 48.269 33.9697C46.6591 33.9697 44.9509 33.8692 43.8858 33.7715L43.7375 36.2961C44.8782 36.3959 46.56 36.4943 48.393 36.4943C51.5136 36.4943 53.4692 35.5282 53.4692 32.9296C53.4692 30.4292 52.1567 29.6863 49.5323 29.1908C47.1083 28.7695 46.4117 28.5962 46.4117 27.6302" fill="white" fill-opacity="0.9"/>
<path d="M86.7102 26.8188H80.4683C80.32 28.6261 80.9146 29.394 82.5002 29.394H83.5896V33.5291C82.3654 33.6821 81.1342 33.773 79.9008 33.8014C77.4247 33.8014 76.4587 32.8354 76.4587 27.9552C76.4587 23.2248 77.1766 22.1091 81.0886 22.4092L83.7636 22.606C85.5459 22.7065 86.214 21.7405 86.1876 20.2304C84.2758 19.9446 82.3499 19.7623 80.4184 19.6843C74.7234 19.6843 73.2119 21.3191 73.2119 28.0258C73.2119 34.5629 75.0456 36.4942 79.7988 36.4942C82.1184 36.4327 84.4292 36.1843 86.7087 35.7513L86.7102 26.8188Z" fill="white" fill-opacity="0.9"/>
<path d="M103.946 27.6359C103.946 26.8681 104.541 26.5964 105.283 26.5964C106.546 26.5964 107.707 26.6456 108.452 26.6677C109.814 26.7169 110.483 25.9747 110.408 24.3863C109.493 24.2872 107.387 24.1382 105.654 24.1382C102.955 24.1382 100.974 25.1548 100.974 27.6544C100.974 30.2539 102.434 30.9483 105.109 31.3931C107.533 31.7888 108.032 31.9635 108.032 32.8048C108.032 33.8214 106.891 33.9697 105.802 33.9697C104.193 33.9697 102.485 33.8692 101.42 33.7715L101.272 36.2961C102.412 36.3959 104.094 36.4943 105.927 36.4943C109.047 36.4943 111.004 35.5282 111.004 32.9296C111.004 30.4292 109.691 29.6863 107.066 29.1908C104.642 28.7695 103.947 28.5962 103.947 27.6302" fill="white" fill-opacity="0.9"/>
<path d="M99.2951 28.0545C99.2951 25.5592 98.2813 24.2224 95.1928 24.2224C93.2678 24.2224 90.7433 24.4456 89.6061 24.5696C89.5819 26.0754 90.0011 26.8418 91.3122 26.8418C92.2012 26.8418 93.9316 26.7427 94.9482 26.7427C95.8387 26.7427 96.2814 27.0657 96.2814 28.1023V28.5479C94.9226 28.6192 93.687 28.7703 92.5492 28.9421C89.8806 29.3385 88.3242 30.105 88.3242 32.7479C88.3242 35.1213 89.5099 36.5543 92.0551 36.5543C94.4747 36.552 96.8924 36.4204 99.2979 36.16L99.2951 28.0545ZM96.2786 34.1345C95.0789 34.2446 93.8744 34.2941 92.6696 34.2828C91.4576 34.2828 91.2616 33.49 91.2616 32.7749C91.2616 31.662 91.7806 31.3662 93.0161 31.1437C94.0939 30.9416 95.1837 30.8097 96.2786 30.7488V34.1345Z" fill="white" fill-opacity="0.9"/>
<mask id="mask0_595_847" style="mask-type:luminance" maskUnits="userSpaceOnUse" x="94" y="0" width="21" height="18">
<path d="M100.95 4.51059C100.95 4.51059 97.8754 5.54181 96.2445 6.97101C95.1977 7.82762 94.4694 9.01138 94.1768 10.3319C94.9361 9.92933 95.7249 9.58496 96.5364 9.30179L107.59 5.69279C107.59 5.69279 108.02 14.0946 103.077 17.7906C104.836 17.4046 106.521 16.7381 108.068 15.8167C115.367 11.6667 114.768 0 114.768 0L100.95 4.51059Z" fill="white"/>
</mask>
<g mask="url(#mask0_595_847)">
<path d="M111.574 -8.12687L87.3618 3.17749L97.9711 25.901L122.183 14.5966L111.574 -8.12687Z" fill="white" fill-opacity="0.9"/>
</g>
<mask id="mask1_595_847" style="mask-type:luminance" maskUnits="userSpaceOnUse" x="91" y="10" width="13" height="11">
<path d="M92.7707 11.2738C92.2137 11.7303 91.7657 12.3055 91.4594 12.9573C91.1531 13.6091 90.9961 14.321 91.0001 15.0412C91.0001 17.826 93.4728 20.0837 96.5237 20.0837C98.0175 20.1242 99.8932 19.6777 102.232 18.3488C102.526 18.181 102.808 17.9954 103.079 17.7929C102.375 17.9363 101.656 18.0013 100.937 17.9866C97.1234 17.9866 94.0319 15.165 94.0319 11.6835C94.0316 11.2305 94.0808 10.7788 94.1786 10.3364C93.6773 10.5977 93.206 10.9127 92.7728 11.2759" fill="white"/>
</mask>
<g mask="url(#mask1_595_847)">
<path d="M94.0198 5.10469L86.7612 17.6765L100.058 25.3539L107.317 12.782L94.0198 5.10469Z" fill="white" fill-opacity="0.9"/>
</g>
</svg>
