<svg width="116" height="37" viewBox="0 0 116 37" fill="none" xmlns="http://www.w3.org/2000/svg">
<path d="M16.8536 0C18.6292 0 20.2962 0.799887 21.4558 2.25423C22.0356 2.90868 22.3979 3.59949 22.7603 4.25395C23.0502 4.83568 23.3401 5.41742 23.63 5.9628L23.7387 6.18095C26.5653 11.6347 29.2469 17.1612 31.7473 22.615L31.7835 22.6514C32.0372 23.2331 32.3271 23.8512 32.617 24.5056C32.7982 24.9056 32.9794 25.3783 33.1605 25.8146C33.6316 27.1598 33.7766 28.4324 33.4867 29.7049C33.0881 32.3954 31.3124 34.7224 28.7758 35.7404C27.8698 36.1404 26.8552 36.3222 25.8405 36.3222C25.5506 36.3222 25.1882 36.2858 24.8983 36.2494C23.7025 36.104 22.4704 35.7041 21.2746 35.0133C19.8251 34.177 18.3755 32.9772 16.7811 31.232C15.1866 32.9772 13.7734 34.177 12.2876 35.0133C11.0918 35.7041 9.85968 36.104 8.66384 36.2494C8.37394 36.2858 8.01156 36.3222 7.72166 36.3222C6.707 36.3222 5.72858 36.1404 4.7864 35.7404C2.286 34.7224 0.47411 32.4318 0.0754953 29.7049C-0.105693 28.396 0.0392575 27.1235 0.510348 25.7782C0.691537 25.3055 0.872725 24.8692 1.05391 24.4693C1.34382 23.8148 1.63372 23.1967 1.88738 22.615L1.92362 22.5423C4.42402 17.0885 7.14185 11.562 9.93216 6.10823L10.0409 5.89008C10.3308 5.3447 10.6207 4.76297 10.9106 4.18123C11.273 3.52678 11.6716 2.83596 12.2151 2.18151C13.411 0.799888 15.0417 0 16.8536 0ZM16.8898 2.39966C15.7664 2.39966 14.7518 2.87232 13.9908 3.74493C13.5922 4.21759 13.266 4.76297 12.9761 5.3447C12.6862 5.89008 12.3963 6.47182 12.1064 7.0172L11.9977 7.23535C9.2074 12.6164 6.52581 18.1429 4.02541 23.5603L3.98917 23.633C3.69927 24.2511 3.40937 24.8692 3.1557 25.451C2.97451 25.8873 2.79333 26.2509 2.68461 26.6144C2.32223 27.6325 2.24976 28.5414 2.35847 29.4504C2.61214 31.341 3.88046 32.9772 5.65611 33.7044C6.48957 34.0316 7.43175 34.177 8.41017 34.0679C9.31612 33.9589 10.2221 33.668 11.1642 33.1226C12.4688 32.3954 13.8096 31.2683 15.2953 29.5958C12.9399 26.6508 11.4541 23.9239 10.9106 21.5242C10.6207 20.4335 10.5844 19.3791 10.7294 18.4338C10.8743 17.5248 11.2005 16.6886 11.7078 15.9614C12.8312 14.3616 14.7155 13.3799 16.8173 13.3799C18.9191 13.3799 20.8035 14.3253 21.9268 15.9614C22.4342 16.6886 22.7603 17.5248 22.9053 18.4338C23.014 19.3791 22.9777 20.3971 22.7241 21.5242C22.1805 23.9239 20.731 26.6144 18.3393 29.5595C19.8613 31.232 21.1659 32.3591 22.4704 33.0863C23.4126 33.6316 24.3185 33.9225 25.2245 34.0316C26.1667 34.1407 27.1088 34.0316 27.9785 33.668C29.7542 32.9408 31.0225 31.3047 31.2762 29.414C31.4211 28.4687 31.3124 27.5598 31.0225 26.6144C30.9138 26.2509 30.7326 25.8873 30.5514 25.451C30.2615 24.8692 30.0079 24.2148 29.718 23.633V23.5967C27.2176 18.1793 24.536 12.6528 21.7819 7.23535L21.6732 7.0172C21.3833 6.47182 21.0934 5.89008 20.8035 5.3447C20.5136 4.76297 20.1874 4.21759 19.7888 3.74493C19.0278 2.87232 18.0132 2.39966 16.8898 2.39966ZM16.8173 15.5978C15.4765 15.5978 14.3169 16.2159 13.6284 17.1976C13.3385 17.6339 13.1211 18.1429 13.0486 18.7246C12.9399 19.3791 12.9761 20.1063 13.1573 20.9425C13.5922 22.9059 14.8605 25.2328 16.8173 27.7052C18.7742 25.1965 20.0425 22.8695 20.4773 20.9425C20.6585 20.1426 20.6948 19.3791 20.5861 18.7246C20.5136 18.1429 20.2962 17.6339 20.0062 17.1976C19.354 16.1795 18.1581 15.5978 16.8173 15.5978ZM47.9093 13.0164C50.301 13.0164 51.4244 14.4707 51.4244 14.4707V13.889C51.4244 13.6344 51.6418 13.3799 51.9317 13.3799H54.8669V27.0507H51.9317C51.6418 27.0507 51.4244 26.8326 51.4244 26.5417V25.9236C51.4244 25.9236 50.3372 27.4143 47.9093 27.4143C43.9231 27.4143 40.8792 24.3602 40.8792 20.2153C40.8792 16.0341 43.9594 13.0164 47.9093 13.0164ZM105.491 6.79904V14.4707C105.491 14.4707 106.614 13.0164 109.006 13.0164C112.92 13.0164 116 16.0705 116 20.2153C116 24.3602 112.92 27.4143 108.97 27.4143C106.578 27.4143 105.455 25.9236 105.455 25.9236V26.5417C105.455 26.7962 105.237 27.0507 104.947 27.0507H102.012V6.79904H105.491ZM75.7761 6.79904V14.4707C75.7761 14.4707 76.8995 13.0164 79.2912 13.0164C83.2411 13.0164 86.3213 16.0705 86.2851 20.2153C86.2851 24.3602 83.2048 27.4143 79.2549 27.4143C76.8632 27.4143 75.7399 25.9236 75.7399 25.9236V26.5417C75.7399 26.7962 75.5225 27.0507 75.2326 27.0507H72.2973V6.79904H75.7761ZM94.6922 13.0164C96.2142 13.0164 97.4825 13.4527 98.4972 14.3253C99.7293 15.3433 100.2 16.6522 100.2 18.9428V27.0871H96.7215V19.3427C96.7215 17.0885 95.9968 16.1795 94.0399 16.1795C92.989 16.1795 91.9019 16.7249 91.2134 17.5248V27.0507H87.7346V13.3799H90.4886C90.7785 13.3799 90.996 13.6344 90.996 13.889V14.4707C92.0106 13.4163 93.3514 13.0164 94.6922 13.0164ZM69.2896 13.0164C70.3405 13.0164 70.884 13.1981 70.884 13.1981V16.4341C70.884 16.4341 67.985 15.4524 66.1731 17.5248V27.0871H62.6943V13.3799H65.6296C65.9195 13.3799 66.1369 13.6344 66.1369 13.889V14.4707C66.7892 13.7072 68.2024 13.0164 69.2896 13.0164ZM60.52 13.3799V27.0507H57.0412V13.3799H60.52ZM48.4891 16.2886C46.1699 16.2886 44.3942 17.743 44.3942 20.2153C44.3942 22.6877 46.1699 24.1421 48.4891 24.1421C49.7937 24.1421 50.8808 23.4512 51.4244 22.6514V17.7793C50.917 17.0158 49.7574 16.2886 48.4891 16.2886ZM108.426 16.2523C107.194 16.2523 106.035 17.0158 105.491 17.743V22.615C106.035 23.4149 107.086 24.1057 108.426 24.1057C110.746 24.1057 112.521 22.6514 112.521 20.179C112.521 17.7066 110.746 16.2523 108.426 16.2523ZM78.7114 16.2523C77.4793 16.2523 76.3197 17.0158 75.7761 17.743V22.615C76.3197 23.4149 77.3706 24.1057 78.7114 24.1057C81.0306 24.1057 82.8062 22.6514 82.8062 20.179C82.8062 17.7066 81.0306 16.2523 78.7114 16.2523ZM58.7806 6.76269C60.1214 6.79904 61.1361 7.85344 61.1361 9.12599C61.1361 10.4349 60.0852 11.4893 58.7806 11.4893C57.4761 11.4893 56.4252 10.4349 56.4252 9.12599C56.4252 7.81708 57.4398 6.76269 58.7806 6.76269Z" fill="white"/>
</svg>
