<svg width="114" height="31" viewBox="0 0 114 31" fill="none" xmlns="http://www.w3.org/2000/svg">
<path d="M42 24V7H48.9789C50.1497 7 51.1836 7.20529 52.0807 7.61604C52.993 8.02679 53.7076 8.63532 54.2245 9.44161C54.7415 10.2478 55 11.2443 55 12.4308C55 13.587 54.7339 14.5682 54.2017 15.3744C53.6848 16.1807 52.9702 16.7969 52.0579 17.2228C51.1608 17.6335 50.1345 17.8389 48.9789 17.8389H45.535V24H42ZM45.535 14.7584H49.0017C49.7468 14.7584 50.3398 14.5454 50.7806 14.1195C51.2368 13.6935 51.4649 13.1306 51.4649 12.4308C51.4649 11.7159 51.2368 11.1454 50.7806 10.7194C50.3398 10.2935 49.7468 10.0805 49.0017 10.0805H45.535V14.7584Z" fill="white" fill-opacity="0.9"/>
<path d="M57 24V11.1413H59.8406V13.0724C60.1246 12.2717 60.5234 11.7301 61.0373 11.4475C61.5652 11.1492 62.1669 11 62.8432 11H64V14.0616H62.5392C61.7953 14.0616 61.1936 14.3285 60.7333 14.8623C60.2731 15.3804 60.0435 16.1184 60.0435 17.0761V24H57Z" fill="white" fill-opacity="0.9"/>
<path d="M66 10.4228V7H69V10.4228H66ZM66 24V11.5409H69V24H66Z" fill="white" fill-opacity="0.9"/>
<path d="M77.4946 24C76.0749 24 74.9707 23.5805 74.183 22.7416C73.4085 21.8869 73.0212 20.6997 73.0212 19.1802V13.9805H71V10.8939H71.1508C72.3975 10.8939 73.0212 10.2291 73.0212 8.8995V7H76.2471V10.8939H79V13.9805H76.2471V19.1802C76.2471 20.4939 76.9137 21.1508 78.2469 21.1508C78.4479 21.1508 78.6984 21.1271 79 21.0796V23.8813C78.527 23.9604 78.0252 24 77.4946 24Z" fill="white" fill-opacity="0.9"/>
<path d="M86.5 24C85.2974 24 84.1997 23.7187 83.2052 23.1561C82.2261 22.5935 81.4465 21.8257 80.8683 20.8526C80.2891 19.8644 80 18.7468 80 17.5C80 16.238 80.2891 15.1204 80.8683 14.1474C81.4465 13.1743 82.2261 12.4064 83.2052 11.8439C84.1997 11.2813 85.2974 11 86.5 11C87.7018 11 88.7926 11.2813 89.7718 11.8439C90.7662 12.4064 91.5526 13.1743 92.1318 14.1474C92.71 15.1204 93 16.238 93 17.5C93 18.7468 92.71 19.8644 92.1318 20.8526C91.5526 21.8257 90.7662 22.5935 89.7718 23.1561C88.7926 23.7187 87.7018 24 86.5 24ZM86.5 20.921C87.4194 20.921 88.1546 20.6017 88.7031 19.9631C89.2677 19.3246 89.5491 18.5035 89.5491 17.5C89.5491 16.5117 89.2677 15.6982 88.7031 15.0596C88.1546 14.4059 87.4194 14.079 86.5 14.079C85.5942 14.079 84.8599 14.4059 84.2961 15.0596C83.7323 15.6982 83.45 16.5117 83.45 17.5C83.45 18.5035 83.7323 19.3246 84.2961 19.9631C84.8599 20.6017 85.5942 20.921 86.5 20.921Z" fill="white" fill-opacity="0.9"/>
<path d="M95 24V11.2796H98.3003V12.8172C98.6147 12.2114 99.0545 11.7611 99.6208 11.466C100.202 11.1553 100.885 11 101.671 11C102.504 11 103.251 11.1709 103.911 11.5126C104.57 11.8387 105.105 12.3201 105.513 12.957C105.875 12.3667 106.401 11.8931 107.093 11.5359C107.785 11.1786 108.563 11 109.427 11C110.323 11 111.116 11.2019 111.808 11.6058C112.499 11.9941 113.034 12.5531 113.411 13.2831C113.803 13.9976 114 14.844 114 15.8226V24H110.464V16.5681C110.464 15.7915 110.268 15.1935 109.875 14.7742C109.497 14.3549 108.994 14.1452 108.366 14.1452C107.737 14.1452 107.227 14.3549 106.834 14.7742C106.456 15.1935 106.268 15.7915 106.268 16.5681V24H102.732V16.5681C102.732 15.7915 102.536 15.1935 102.143 14.7742C101.766 14.3549 101.263 14.1452 100.634 14.1452C100.006 14.1452 99.4944 14.3549 99.1015 14.7742C98.7249 15.1935 98.5361 15.7915 98.5361 16.5681V24H95Z" fill="white" fill-opacity="0.9"/>
<path d="M0 15.5C0 18.5656 0.938316 21.5623 2.6964 24.1113C4.45461 26.6603 6.9534 28.647 9.87698 29.8201C12.8007 30.9933 16.0178 31.3002 19.1214 30.7021C22.2251 30.104 25.076 28.6278 27.3137 26.4601C29.5513 24.2924 31.0751 21.5306 31.6925 18.5239C32.3099 15.5172 31.9931 12.4007 30.782 9.56833C29.5711 6.7361 27.5203 4.3154 24.8891 2.61214C22.2579 0.908993 19.1645 0 16 0V15.5H0Z" fill="url(#paint0_radial_595_879)" fill-opacity="0.9"/>
<defs>
<radialGradient id="paint0_radial_595_879" cx="0" cy="0" r="1" gradientUnits="userSpaceOnUse" gradientTransform="translate(16 15.5) rotate(-90) scale(15.5 16)">
<stop stop-color="#171718"/>
<stop offset="0.0001" stop-color="white"/>
<stop offset="1" stop-color="white" stop-opacity="0"/>
</radialGradient>
</defs>
</svg>
