<svg width="54" height="39" viewBox="0 0 54 39" fill="none" xmlns="http://www.w3.org/2000/svg">
<path d="M53.9591 20.0829C53.9298 20.0588 53.8874 20.0511 53.8543 20.0623C53.814 20.0747 53.7769 20.0854 53.742 20.0957L53.7249 20.1006C53.6388 20.1259 53.5645 20.1474 53.4908 20.177C52.327 20.6394 51.4107 21.4317 50.6896 22.5989C50.5115 22.8873 50.3735 23.1871 50.2637 23.4861C50.4439 22.4805 50.4856 22.0887 50.5175 20.9635C50.519 20.9163 50.519 20.8682 50.519 20.8205C50.519 20.6904 50.519 20.5674 50.5475 20.4552C50.5816 20.3223 50.6501 20.1897 50.7165 20.0614C50.7351 20.025 50.7538 19.9887 50.7692 19.9568C50.7746 19.9505 50.7919 19.94 50.7986 19.9389C51.1314 19.8881 51.4258 19.7468 51.6987 19.507C51.9736 19.2642 52.1997 18.967 52.3709 18.6234C52.985 17.3917 53.2923 16.0305 53.2845 14.5777C53.2838 14.4376 53.2674 14.3011 53.2493 14.1528C53.241 14.0863 53.2327 14.0183 53.2258 13.9479C53.2218 13.9092 53.198 13.8749 53.1636 13.8582C53.1296 13.8417 53.0885 13.8429 53.0542 13.8636C53.0334 13.8767 53.0156 13.8872 52.9995 13.8966C52.9683 13.9152 52.9445 13.9297 52.922 13.946C52.3981 14.3215 51.936 14.789 51.5484 15.3352C50.9159 16.2279 50.548 17.2374 50.4489 18.3478C50.4391 18.224 50.4291 18.1003 50.4192 17.9765L50.4156 17.9316C50.3768 17.4463 50.3366 16.9444 50.3039 16.4509C50.2957 16.3259 50.2717 16.2044 50.2485 16.0867C50.2037 15.8606 50.1614 15.647 50.2291 15.4232C50.2445 15.3726 50.2576 15.3217 50.2705 15.2709C50.3025 15.145 50.4572 14.9512 50.6946 14.7392L50.7036 14.7312C50.7912 14.657 51.2411 14.2453 51.4963 13.4312C51.7554 12.604 51.7358 11.7397 51.7215 11.1086L51.7212 11.0918C51.7021 10.2242 51.6084 9.57047 51.4172 8.97169C51.3925 8.89517 51.3632 8.81965 51.3321 8.74027C51.3159 8.699 51.2994 8.65626 51.2825 8.6116C51.2686 8.5738 51.2352 8.54633 51.1961 8.53978L51.1769 8.53808C51.1431 8.53808 51.1114 8.55328 51.0899 8.5795L50.9042 8.80584C50.0136 9.89192 49.5762 11.1658 49.6035 12.592C49.6083 12.8432 49.6271 13.1009 49.6604 13.3669C49.4341 12.5858 49.1686 11.8254 48.8668 11.0939C48.8605 11.078 48.8564 11.0581 48.856 11.0413L48.8539 10.9413C48.8507 10.7969 48.8475 10.6477 48.8537 10.5008C48.8546 10.4764 48.8703 10.4327 48.9032 10.3896C48.9499 10.328 49.0015 10.2678 49.0551 10.2052C49.1465 10.0989 49.2408 9.98919 49.3155 9.86384C49.5561 9.46085 49.6691 8.98473 49.671 8.36528C49.6742 7.63614 49.5618 6.86886 49.3167 5.95038C49.1829 5.44932 48.9808 4.79837 48.6045 4.20821C48.579 4.16853 48.5504 4.13117 48.52 4.09162C48.5063 4.0741 48.4919 4.05542 48.4773 4.03535C48.456 4.00669 48.4265 3.98999 48.3789 3.98999C48.341 3.99277 48.3071 4.01435 48.2882 4.04788C47.8158 4.90046 47.5805 5.81128 47.5694 6.83243C47.5598 7.68389 47.6928 8.4165 47.8595 8.99553C47.4352 8.22041 46.9638 7.47155 46.4528 6.7612L46.441 6.74507C46.4294 6.72964 46.4245 6.72211 46.4254 6.72744C46.3932 6.49762 46.3709 6.31374 46.3555 6.15364C46.3559 6.1512 46.3589 6.13774 46.3828 6.09784C46.4165 6.0403 46.4535 5.98391 46.4929 5.92428C46.5718 5.80432 46.6532 5.68019 46.7054 5.5412C46.863 5.1217 46.8983 4.64593 46.8133 4.0872C46.6266 2.85062 46.0815 1.73711 45.1471 0.682904C45.0509 0.574663 44.9447 0.478951 44.8322 0.377788L44.8012 0.349596C44.7572 0.309804 44.7121 0.269083 44.6665 0.226042C44.6375 0.198431 44.596 0.188106 44.5557 0.199939C44.5177 0.212005 44.4883 0.24356 44.4792 0.282773L44.4588 0.372335C44.4449 0.431734 44.4341 0.478603 44.4261 0.525705C44.3004 1.27632 44.3095 2.08029 44.4543 2.9838C44.5979 3.87989 44.8841 4.65277 45.3233 5.32414C44.6648 4.54824 44.0243 3.89671 43.3548 3.31931C43.3518 3.31537 43.3474 3.30342 43.347 3.3004C43.3994 2.84969 43.2883 2.42508 43.007 2.00233C42.6377 1.44674 42.1246 1.02329 41.4819 0.743929C41.0973 0.577099 40.6988 0.429414 40.3086 0.284745C40.1217 0.215369 39.9349 0.146225 39.7424 0.0720921C39.549 -0.00482449 39.4663 -0.0185144 39.4214 0.0230183C39.3636 0.0768487 39.3775 0.122791 39.4027 0.20632L39.4109 0.233583C39.6467 1.02804 39.9597 1.65637 40.368 2.15442C41.1174 3.06965 41.9939 3.53464 43.0461 3.5757C43.083 3.5779 43.1122 3.58811 43.1242 3.5974C43.2724 3.70831 43.3814 3.79706 43.4778 3.88499C43.7827 4.16366 44.083 4.46054 44.3766 4.77319C43.9398 4.50172 43.4057 4.37921 42.8043 4.40961C42.4753 4.4262 42.1486 4.47445 41.8326 4.52109L41.8205 4.52295C41.7271 4.53664 41.6343 4.55022 41.5415 4.56332C41.3385 4.59082 41.1338 4.62679 40.9531 4.65834C40.8799 4.67145 40.7051 4.71124 40.6648 4.79604C40.6509 4.82505 40.6521 4.85684 40.6678 4.88573C40.6818 4.9109 40.6971 4.93457 40.7138 4.95614C41.2355 5.63309 41.8307 6.07893 42.5332 6.31896C43.3898 6.61317 44.1767 6.58892 44.8836 6.24286C44.9918 6.18334 45.1221 6.15318 45.2711 6.15318C45.3836 6.15318 45.4679 6.17092 45.4959 6.17731C45.5377 6.18427 45.5946 6.2077 45.6062 6.22278C46.0459 6.80088 46.4632 7.4183 46.8529 8.0669C46.5237 7.74676 46.0943 7.53084 45.5093 7.39022C44.9966 7.26806 44.4725 7.24184 43.9658 7.21632L43.796 7.20774C43.6371 7.19961 43.4782 7.18952 43.3145 7.17919L43.04 7.16226C43.0044 7.16226 42.9707 7.17943 42.9501 7.20797C42.9272 7.23871 42.9217 7.27862 42.9352 7.31447C42.9462 7.3444 42.9663 7.39719 42.9766 7.41482C43.5111 8.30881 44.1387 8.92718 44.8951 9.30541C45.6346 9.67476 46.3027 9.77243 46.9766 9.61128C47.0546 9.59253 47.145 9.5825 47.2384 9.5825C47.525 9.5825 47.7249 9.66998 47.767 9.75098C48.1377 10.5158 48.4686 11.3106 48.754 12.1214C48.4547 11.7087 48.0361 11.3736 47.5061 11.1229C46.9796 10.8743 46.4315 10.6472 45.8922 10.4237C45.6604 10.3278 45.4276 10.2317 45.196 10.1332C45.1615 10.1182 45.1208 10.1213 45.0887 10.1426C45.0571 10.1635 45.0383 10.1986 45.0383 10.2363C45.0383 10.3086 45.8075 12.4435 46.9246 13.2846C47.3802 13.6278 47.9415 13.9808 48.6494 13.9974C48.8612 14.0017 49.0802 14.0317 49.2457 14.2197C49.2709 14.2497 49.3045 14.273 49.341 14.2854C49.3975 14.304 49.4131 14.3385 49.4409 14.4564C49.6701 15.4188 49.8371 16.4109 49.9399 17.4182C49.9088 17.316 49.8727 17.2128 49.8313 17.1082C49.5813 16.4742 49.1605 15.9194 48.5071 15.3622C48.1703 15.0738 47.8176 14.7946 47.4766 14.5244L47.4603 14.5116C47.305 14.3885 47.15 14.2659 46.9955 14.1417C46.9635 14.1161 46.9324 14.0897 46.8964 14.0588L46.8 13.9762C46.7662 13.9477 46.716 13.9417 46.6766 13.9615C46.6361 13.982 46.6118 14.0245 46.6149 14.0698C46.6197 14.1379 46.6235 14.2024 46.6271 14.2642L46.629 14.293C46.6366 14.4203 46.6438 14.5404 46.6567 14.6589C46.7776 15.8134 47.1209 16.7772 47.7062 17.6055C48.0685 18.1174 48.5882 18.7432 49.3987 19.0392C49.5959 19.1115 49.7389 19.2211 49.8922 19.4179C50.0368 19.6021 50.0637 19.7705 50.0604 19.9823C50.0467 20.8697 49.9834 21.75 49.8719 22.6121C49.8458 22.3722 49.7905 22.1252 49.7058 21.8686C49.5303 21.3372 49.2566 20.8207 48.8693 20.2893C48.535 19.8292 48.1871 19.3675 47.8506 18.9207L47.8282 18.8909C47.6948 18.7139 47.5615 18.5368 47.4317 18.3635C47.4073 18.3278 47.3721 18.3151 47.3519 18.308C47.3231 18.294 47.2888 18.2926 47.2582 18.3056C47.2283 18.3184 47.2053 18.3435 47.1953 18.3744L47.1913 18.3865C47.1857 18.4027 47.1813 18.4171 47.179 18.4314C46.9469 19.8151 47.0893 21.0547 47.6141 22.2215C47.8703 22.792 48.2141 23.438 48.8201 23.9028C49.0968 24.1149 49.3153 24.4126 49.4352 24.7409C49.4606 24.8115 49.4597 24.8422 49.4568 24.854C49.2003 25.9164 48.8652 26.9412 48.4579 27.911C48.5628 27.3999 48.5556 26.863 48.4359 26.3067C48.2659 25.5182 47.9738 24.7542 47.7133 24.0999L47.6351 23.904C47.513 23.5973 47.39 23.2883 47.263 22.9679C47.2469 22.927 47.208 22.899 47.1561 22.8965C47.1153 22.8965 47.0777 22.9198 47.0583 22.9576L47.0173 23.0347C46.9993 23.0684 46.9825 23.0998 46.9681 23.1323C46.4439 24.315 46.2669 25.5273 46.4422 26.7357C46.5675 27.5998 46.7798 28.2185 47.1306 28.7419C47.3122 29.0125 47.4847 29.3139 47.516 29.6845C47.5234 29.7722 47.5199 29.8327 47.4808 29.9015C47.0384 30.6763 46.5423 31.4076 45.999 32.0869C46.0011 32.0832 46.0031 32.0795 46.0052 32.0758C46.396 31.3615 46.4079 30.5892 46.3679 29.9278C46.3335 29.3609 46.2686 28.7948 46.206 28.2474L46.2024 28.2157C46.1772 27.9964 46.1521 27.7773 46.1293 27.5576C46.116 27.4332 46.1013 27.3087 46.0861 27.1823L46.0661 27.0114C46.0617 26.9735 46.0386 26.9408 46.0054 26.9244C45.9437 26.8921 45.8438 26.9419 45.7359 27.0695C44.9945 27.9464 44.5343 28.9374 44.3682 30.0151C44.1959 31.1324 44.2893 32.0886 44.6541 32.9383C44.6638 32.9609 44.6636 33.0071 44.6635 33.0225L44.6439 33.5114C44.6409 33.5465 44.6224 33.5862 44.6071 33.6009C43.8667 34.3139 43.0516 34.9338 42.1768 35.4497C42.5909 35.0755 42.8886 34.5872 43.0815 33.9684C43.2953 33.2825 43.405 32.5686 43.5114 31.8765L43.5208 31.8149C43.5584 31.5717 43.5977 31.329 43.6379 31.081L43.6833 30.8006C43.6898 30.7598 43.6737 30.7189 43.6419 30.6945C43.6106 30.6694 43.565 30.6634 43.5289 30.6789L43.4893 30.6952C43.4471 30.7126 43.4103 30.728 43.3756 30.7458C41.722 31.5716 40.6334 33.4979 40.7872 35.3258C40.8114 35.6122 40.7851 35.8811 40.7069 36.1475C40.6996 36.1717 40.6762 36.198 40.6667 36.2025C39.8813 36.5336 39.1345 36.7753 38.3831 36.9412C38.3445 36.9501 38.3138 36.9777 38.3013 37.015C38.2886 37.0525 38.2963 37.0931 38.322 37.1238C38.4037 37.2206 38.4748 37.3246 38.5333 37.4336C38.5573 37.4781 38.6145 37.501 38.6573 37.4898C39.2695 37.3502 39.8657 37.1693 40.4299 36.9519C40.4755 36.9335 40.5103 36.9248 40.5429 36.9301C40.6684 36.9469 40.801 36.9726 40.9482 37.0092C40.9786 37.0166 41.0038 37.0307 41.0043 37.0293C41.3258 37.6705 41.8786 38.0789 42.6945 38.2776C42.872 38.3202 43.055 38.3516 43.2386 38.3708C43.4307 38.3911 43.645 38.4015 43.8753 38.4015C44.1943 38.4015 44.4218 38.3817 44.4246 38.3815C45.1318 38.3024 45.7358 38.1432 46.2707 37.8948C46.4902 37.793 46.7404 37.656 46.9326 37.4114C46.9694 37.3645 46.9632 37.2969 46.9185 37.2575C46.3752 36.7781 45.8219 36.4297 45.2268 36.1926C44.3452 35.8422 43.5422 35.7473 42.755 35.8987C42.6374 35.9216 42.5225 35.9504 42.4109 35.9834C43.1473 35.5432 43.8523 35.026 44.5181 34.4366C44.5309 34.425 44.5518 34.4148 44.5682 34.4118C44.6772 34.3938 44.8218 34.3715 44.9699 34.3609C44.9835 34.3609 45.001 34.3674 45.0029 34.3681C45.4041 34.8171 45.921 35.0353 46.5831 35.0353C46.6168 35.0353 46.6506 35.0346 46.6844 35.0335C47.4043 35.0102 48.128 34.8124 48.8358 34.4452C49.3502 34.1769 49.8864 33.8645 50.3212 33.3986C50.4176 33.295 50.5037 33.1778 50.5797 33.0744L50.5871 33.0644C50.6207 33.0188 50.6548 32.9728 50.6897 32.9275C50.7087 32.903 50.7167 32.8715 50.7117 32.8396C50.7064 32.809 50.6886 32.7818 50.6584 32.762C50.6507 32.7578 50.4666 32.6591 50.2984 32.5941C49.1729 32.1591 48.0366 32.1146 46.9526 32.4639C46.5976 32.5779 46.2636 32.7491 45.9385 32.9858C46.5399 32.2867 47.0967 31.5203 47.6023 30.6957C47.6078 30.687 47.6222 30.6634 47.6268 30.6592C47.671 30.631 47.7163 30.6043 47.7614 30.578C47.8422 30.5305 47.926 30.4815 48.0046 30.423C48.0711 30.3735 48.0897 30.3722 48.1568 30.4154C48.2516 30.4769 48.362 30.5089 48.4581 30.5342C49.0208 30.6782 49.588 30.6064 50.2154 30.3118C50.7885 30.0431 51.2292 29.6184 51.6201 29.1996C52.1888 28.5887 52.5604 28.0375 52.7897 27.4648C52.8378 27.3446 52.8721 27.2204 52.9078 27.0905C52.9226 27.0359 52.9377 26.9815 52.9537 26.9278C52.9712 26.8703 52.9406 26.8094 52.8837 26.7893L52.8366 26.7858C52.6047 26.7858 50.536 26.8197 49.3259 27.9938C49.0627 28.2492 48.8267 28.5207 48.6113 28.8179C49.0899 27.8042 49.4959 26.7358 49.823 25.6269L49.8278 25.6107C49.8317 25.5971 49.8377 25.5765 49.8416 25.5709L50.1581 25.1364C50.1699 25.1189 50.1713 25.1189 50.1899 25.1189C50.1982 25.1189 50.2072 25.1196 50.2175 25.1201L50.2852 25.1242C50.5206 25.1388 50.6593 25.1367 50.7733 25.1188C51.2239 25.0477 51.6307 24.8208 52.0166 24.425C52.9193 23.4992 53.5407 22.3442 53.9162 20.8942C53.9564 20.7388 53.9676 20.582 53.9797 20.4156C53.9851 20.3402 53.991 20.2625 53.9996 20.1823C54.0031 20.1437 53.9881 20.107 53.9591 20.0829Z" fill="white"/>
<path opacity="0.2" d="M26.9986 20.9376C29.8744 20.9376 32.2057 18.6063 32.2057 15.7305C32.2057 12.8547 29.8744 10.5234 26.9986 10.5234C24.1229 10.5234 21.7916 12.8547 21.7916 15.7305C21.7916 18.6063 24.1229 20.9376 26.9986 20.9376Z" fill="white"/>
<path d="M26.9988 24.4075C31.7918 24.4075 35.6772 20.522 35.6772 15.729C35.6772 10.936 31.7918 7.05054 26.9988 7.05054C22.2058 7.05054 18.3203 10.936 18.3203 15.729C18.3203 20.522 22.2058 24.4075 26.9988 24.4075Z" stroke="white" stroke-width="1.5" stroke-linecap="round" stroke-linejoin="round"/>
<path d="M26.9986 20.9376C29.8744 20.9376 32.2057 18.6063 32.2057 15.7305C32.2057 12.8547 29.8744 10.5234 26.9986 10.5234C24.1229 10.5234 21.7916 12.8547 21.7916 15.7305C21.7916 18.6063 24.1229 20.9376 26.9986 20.9376Z" stroke="white" stroke-width="1.5" stroke-linecap="round" stroke-linejoin="round"/>
<path d="M32.2068 22.6714V31.3504L26.9989 28.7469L21.7926 31.3504V22.6722" stroke="white" stroke-width="1.5" stroke-linecap="round" stroke-linejoin="round"/>
<path d="M15.6168 36.941C14.8661 36.7752 14.1194 36.5336 13.3338 36.2024C13.3244 36.198 13.3011 36.1716 13.2938 36.148C13.2155 35.881 13.1893 35.6121 13.2134 35.3257C13.3672 33.4977 12.2787 31.5715 10.6254 30.7458C10.5902 30.7279 10.5535 30.7125 10.5113 30.6952L10.4721 30.6789C10.4348 30.663 10.3895 30.6697 10.3595 30.6938C10.327 30.7189 10.3109 30.7597 10.3174 30.8006L10.3627 31.0809C10.4028 31.329 10.4422 31.5717 10.4799 31.8146L10.4894 31.8782C10.5955 32.5686 10.7053 33.2825 10.9191 33.9684C11.112 34.5872 11.4097 35.0755 11.8238 35.4497C10.9491 34.9338 10.1339 34.314 9.39364 33.601C9.37806 33.5861 9.35962 33.5464 9.357 33.5137L9.3371 33.0245C9.33702 33.0071 9.33679 32.9609 9.34666 32.9381C9.71123 32.0886 9.80465 31.1324 9.63239 30.0151C9.46623 28.9374 9.00616 27.9465 8.26467 27.0695C8.17789 26.9668 8.10136 26.9148 8.0371 26.9148C8.02144 26.9148 8.00725 26.918 7.99614 26.9238C7.96204 26.9408 7.9389 26.9735 7.93443 27.0115L7.9146 27.1821C7.89925 27.3089 7.88451 27.4332 7.87132 27.5578C7.84841 27.7773 7.82334 27.9965 7.79819 28.2158L7.79457 28.2474C7.73193 28.7949 7.66699 29.361 7.63265 29.9279C7.59274 30.5891 7.60458 31.3615 7.99545 32.0759C7.99753 32.0794 7.99938 32.0833 8.00146 32.0869C7.45817 31.4075 6.96221 30.6764 6.51974 29.9016C6.48063 29.8327 6.47727 29.7723 6.48458 29.6845C6.51602 29.3137 6.68841 29.0123 6.86998 28.742C7.22069 28.2185 7.433 27.5998 7.55841 26.7357C7.7337 25.5274 7.55666 24.3151 7.03251 23.1325C7.01813 23.0999 7.0013 23.0685 6.98332 23.0347L6.94237 22.9574C6.92276 22.9197 6.88088 22.8949 6.83668 22.8968C6.7926 22.8991 6.75373 22.9271 6.73772 22.9677C6.61057 23.2884 6.4876 23.5974 6.36544 23.904L6.28735 24.0999C6.02679 24.7543 5.73456 25.5184 5.56471 26.3067C5.44498 26.863 5.43768 27.3999 5.54267 27.9111C5.13523 26.9413 4.8003 25.9165 4.54379 24.854C4.54089 24.8422 4.53996 24.8116 4.56537 24.7409C4.68533 24.4126 4.90378 24.1149 5.18059 23.9027C5.78653 23.4379 6.13028 22.792 6.38655 22.2215C6.91128 21.0545 7.05363 19.8149 6.8216 18.4315C6.81916 18.417 6.81476 18.4026 6.80954 18.387L6.80536 18.3744C6.79526 18.3434 6.77229 18.3184 6.7419 18.3053C6.7122 18.2928 6.67485 18.2952 6.65176 18.3065C6.62855 18.315 6.5934 18.3279 6.57055 18.3614C6.43922 18.5368 6.30592 18.7139 6.17251 18.8908L6.15011 18.9206C5.81367 19.3674 5.46575 19.8291 5.1314 20.2891C4.74403 20.8206 4.47047 21.3372 4.29494 21.8685C4.21025 22.1251 4.15491 22.3721 4.12881 22.612C4.01732 21.75 3.95409 20.8698 3.94029 19.9823C3.93704 19.7704 3.96396 19.6021 4.10862 19.4177C4.26176 19.2212 4.40481 19.1115 4.60203 19.039C5.41238 18.743 5.93224 18.1173 6.29455 17.6054C6.87984 16.7772 7.22312 15.8134 7.34401 14.6591C7.35689 14.5403 7.36419 14.4201 7.37174 14.293L7.3736 14.264C7.37719 14.2022 7.38102 14.1378 7.38589 14.0696C7.38891 14.0243 7.36466 13.9819 7.32417 13.9613C7.28496 13.9417 7.23473 13.9474 7.20061 13.9763L7.10444 14.0587C7.06825 14.0895 7.03727 14.116 7.00514 14.1418C6.85072 14.2658 6.69573 14.3885 6.54038 14.5116L6.52414 14.5244C6.18317 14.7945 5.8305 15.0737 5.49371 15.3621C4.8402 15.9194 4.41943 16.4742 4.16942 17.1083C4.12812 17.2128 4.09192 17.3161 4.06082 17.4184C4.16362 16.411 4.33056 15.4188 4.5598 14.4563C4.58764 14.3385 4.60319 14.3039 4.66039 14.2852C4.69635 14.273 4.72988 14.2495 4.75435 14.2205C4.9206 14.0315 5.13952 14.0016 5.35159 13.9973C6.05928 13.9808 6.62055 13.6277 7.07614 13.2846C8.19324 12.4432 8.96242 10.3086 8.96242 10.2361C8.96242 10.1985 8.94359 10.1633 8.91174 10.1421C8.88026 10.1213 8.83783 10.1184 8.80574 10.1327C8.57308 10.2314 8.34035 10.3276 8.09935 10.4272C7.56919 10.6471 7.02103 10.8743 6.49456 11.1227C5.96472 11.3733 5.54603 11.7086 5.24672 12.1212C5.532 11.3106 5.86275 10.5159 6.23306 9.75215C6.27564 9.66976 6.47565 9.58228 6.76243 9.58228C6.85571 9.58228 6.94608 9.59231 7.02416 9.61106C7.69797 9.77259 8.36611 9.67462 9.10559 9.30511C9.86205 8.92696 10.4897 8.30859 11.0243 7.41424C11.0345 7.39696 11.0546 7.34417 11.0654 7.31459C11.079 7.27839 11.0735 7.23848 11.051 7.2082C11.0301 7.17943 10.9967 7.16226 10.9541 7.16226C10.9538 7.16226 10.9535 7.16226 10.9532 7.16226L10.6862 7.17908C10.5225 7.18941 10.3635 7.1995 10.2046 7.20762L10.0348 7.21621C9.5281 7.24173 9.00392 7.26795 8.49116 7.39011C7.90635 7.53072 7.47696 7.74661 7.14772 8.06683C7.53741 7.41819 7.95471 6.80099 8.39427 6.2229C8.40615 6.20759 8.46285 6.18415 8.50936 6.17637C8.53258 6.17092 8.61705 6.15318 8.7293 6.15318C8.87826 6.15318 9.0087 6.18346 9.11925 6.24424C9.8217 6.58776 10.6106 6.61328 11.4671 6.31907C12.1697 6.07904 12.7647 5.6332 13.2864 4.95649C13.3033 4.93468 13.3186 4.9109 13.3325 4.88584C13.3484 4.85695 13.3495 4.82516 13.3355 4.79616C13.2952 4.71147 13.1204 4.67168 13.0469 4.65845C12.8663 4.6269 12.6618 4.59093 12.459 4.56344C12.3661 4.55045 12.2731 4.53687 12.1798 4.52307L12.1678 4.52121C11.8518 4.47457 11.5251 4.42631 11.196 4.40972C10.5946 4.37897 10.0606 4.50172 9.62352 4.77342C9.91743 4.46065 10.2177 4.16389 10.5225 3.8851C10.619 3.79717 10.728 3.70853 10.8766 3.59728C10.8881 3.58846 10.9173 3.57813 10.9532 3.57604C12.0065 3.53486 12.8829 3.06988 13.6324 2.15476C14.0407 1.6566 14.3536 1.02827 14.5895 0.233808L14.5976 0.206544C14.6228 0.123014 14.6367 0.0770724 14.5789 0.0232427C14.5342 -0.0182905 14.4555 -0.00599254 14.2511 0.0749849C14.0655 0.146333 13.8787 0.215594 13.687 0.28671C13.3016 0.429522 12.9031 0.577208 12.5186 0.744038C11.8758 1.0234 11.3626 1.44685 10.9933 2.00244C10.7121 2.42519 10.601 2.84991 10.6533 3.29866C10.653 3.30365 10.6485 3.3156 10.6478 3.31698C9.97691 3.89624 9.33563 4.54835 8.67715 5.32449C9.11624 4.65311 9.40244 3.88012 9.54607 2.98403C9.69087 2.08063 9.70005 1.27654 9.57423 0.52593C9.56628 0.478944 9.55548 0.431959 9.54168 0.37314L9.52116 0.282533C9.51182 0.243668 9.48259 0.212229 9.44417 0.200163C9.40583 0.188794 9.36278 0.198887 9.33409 0.226151C9.28819 0.269423 9.24314 0.31026 9.19917 0.349937L9.16823 0.377897C9.05568 0.479293 8.94938 0.575004 8.85326 0.683245C7.91877 1.73746 7.37371 2.85096 7.18704 4.08743C7.102 4.64627 7.13727 5.12204 7.29494 5.54155C7.34714 5.68054 7.42858 5.80467 7.50968 5.92788C7.5468 5.98414 7.58392 6.04064 7.61792 6.09865C7.64298 6.14029 7.64507 6.15109 7.64495 6.14911C7.62952 6.31443 7.60736 6.49866 7.57743 6.71978C7.57616 6.72257 7.57197 6.72906 7.55864 6.7467L7.54784 6.76167C7.0368 7.47202 6.56533 8.22088 6.14106 8.996C6.30789 8.41705 6.44073 7.68436 6.43133 6.8329C6.41996 5.81163 6.1848 4.90081 5.71216 4.04799C5.69349 4.01481 5.6596 3.99323 5.61216 3.98999C5.5777 3.98999 5.54452 4.00703 5.52283 4.03616C5.50868 4.05588 5.49429 4.07444 5.4806 4.09208C5.45009 4.13152 5.42155 4.16888 5.39603 4.20878C5.01967 4.79894 4.81782 5.44967 4.68382 5.95073C4.43891 6.86967 4.32638 7.637 4.32963 8.36568C4.33148 8.98505 4.44437 9.46117 4.68498 9.86408C4.75981 9.98952 4.85401 10.0993 4.94868 10.2097C4.99891 10.2683 5.05054 10.3285 5.09729 10.3902C5.13 10.4332 5.14579 10.4769 5.14671 10.5013C5.15286 10.6482 5.14961 10.7974 5.14648 10.9418L5.14427 11.0415C5.14393 11.0587 5.13999 11.0785 5.13407 11.0935C4.83197 11.8254 4.56641 12.5861 4.33995 13.3674C4.37325 13.1013 4.39204 12.8438 4.3968 12.5925C4.42418 11.1662 3.98669 9.89255 3.09617 8.80631L2.91055 8.58021C2.88909 8.5536 2.8573 8.53855 2.82342 8.53855L2.80486 8.54017C2.76519 8.54673 2.73177 8.57427 2.71797 8.61176C2.70103 8.65689 2.68444 8.69947 2.66831 8.74066C2.63723 8.8202 2.60787 8.89564 2.58304 8.97232C2.39197 9.57079 2.29823 10.2246 2.2792 11.092L2.27886 11.1089C2.26458 11.7399 2.24498 12.6043 2.50416 13.4315C2.75927 14.2458 3.20917 14.6573 3.29641 14.7312L3.30569 14.7396C3.54317 14.9515 3.69782 15.1454 3.72984 15.2713C3.74271 15.3221 3.75583 15.373 3.77114 15.4234C3.8389 15.6474 3.79654 15.8609 3.75084 16.0914C3.7281 16.2077 3.70443 16.3279 3.6962 16.4512C3.66348 16.9448 3.62334 17.4467 3.58447 17.9319L3.58099 17.9768C3.57102 18.1006 3.56104 18.2244 3.55118 18.3482C3.45211 17.2377 3.08434 16.2283 2.4516 15.3355C2.06412 14.7894 1.60215 14.322 1.07823 13.9463C1.05561 13.93 1.03183 13.9155 1.00004 13.8966C0.984608 13.8877 0.966742 13.877 0.945049 13.8634C0.912334 13.8438 0.870338 13.8421 0.83658 13.8586C0.802005 13.8754 0.778223 13.9096 0.774281 13.9484C0.7672 14.0186 0.758964 14.0865 0.750262 14.1571C0.732745 14.3015 0.716155 14.4379 0.715459 14.5781C0.707686 16.0308 1.01501 17.3921 1.62918 18.6237C1.8003 18.9674 2.02641 19.2646 2.30148 19.5075C2.57423 19.747 2.86855 19.8884 3.2007 19.9392C3.20801 19.9404 3.22541 19.951 3.22808 19.9531C3.24606 19.9892 3.26474 20.0254 3.28342 20.0617C3.34978 20.1899 3.41834 20.3225 3.45245 20.4554C3.48087 20.5678 3.48087 20.6907 3.48087 20.8209C3.48087 20.8686 3.48087 20.9166 3.48238 20.9637C3.51428 22.0891 3.55617 22.481 3.73622 23.4864C3.62635 23.1875 3.48842 22.8876 3.31033 22.5993C2.5892 21.4321 1.67304 20.6398 0.509534 20.1775C0.435518 20.1476 0.361269 20.1262 0.275187 20.1011L0.258017 20.096C0.223097 20.0859 0.186089 20.0749 0.146528 20.0629C0.110796 20.0511 0.0700753 20.0592 0.0409559 20.0833C0.0119525 20.1073 -0.00324525 20.1441 0.000583199 20.1824C0.00916823 20.2622 0.0150849 20.3398 0.0205376 20.4156C0.0324869 20.5816 0.0437403 20.7386 0.0839967 20.8938C0.459417 22.3438 1.08079 23.4987 1.98349 24.4246C2.36947 24.8204 2.7762 25.0474 3.22692 25.1185C3.34061 25.1363 3.4796 25.1385 3.71487 25.1238L3.78263 25.1198C3.79295 25.1192 3.802 25.1186 3.81024 25.1186C3.8288 25.1186 3.83031 25.1186 3.84318 25.1376L4.15839 25.5705C4.16245 25.5762 4.16837 25.5967 4.17243 25.6108L4.17707 25.6264C4.50423 26.7355 4.91016 27.8038 5.38883 28.8176C5.1734 28.5202 4.93731 28.2488 4.67419 27.9934C3.46417 26.8194 1.39541 26.7854 1.1635 26.7854L1.13462 26.7856L1.1164 26.789C1.05956 26.8092 1.02881 26.8699 1.04633 26.9272C1.06245 26.9811 1.07754 27.0356 1.09482 27.0997C1.12788 27.22 1.16223 27.3442 1.21037 27.4644C1.43961 28.0373 1.81121 28.5884 2.38002 29.1993C2.77087 29.6181 3.21149 30.0428 3.78448 30.3114C4.412 30.6061 4.97861 30.678 5.54209 30.5336C5.63791 30.5085 5.74813 30.4766 5.84291 30.4151C5.91043 30.3718 5.92888 30.3732 5.99523 30.4226C6.07389 30.4811 6.15754 30.5302 6.23875 30.5778C6.28364 30.6041 6.32889 30.6307 6.37112 30.6574C6.37785 30.663 6.39224 30.6866 6.39757 30.6953C6.90315 31.5199 7.46014 32.2863 8.06156 32.9854C7.73625 32.7487 7.40225 32.5775 7.04748 32.4634C5.96334 32.1141 4.82698 32.1586 3.70153 32.5937C3.53354 32.6588 3.34943 32.7574 3.33713 32.7644C3.31138 32.7813 3.29363 32.8087 3.28806 32.8401C3.28319 32.871 3.2912 32.9026 3.30999 32.9267C3.34514 32.9724 3.37913 33.0183 3.41277 33.0639L3.4202 33.0739C3.49618 33.1774 3.58227 33.2945 3.67879 33.3982C4.1135 33.8642 4.64959 34.1766 5.16423 34.4448C5.87191 34.812 6.59561 35.0098 7.31535 35.033C7.34923 35.0342 7.38311 35.0349 7.41687 35.0349C8.07899 35.0349 8.59576 34.8167 8.9942 34.3704C8.99906 34.3669 9.01634 34.3603 9.02583 34.3601C9.17803 34.3711 9.32275 34.3932 9.43082 34.4112C9.44795 34.4142 9.46893 34.4245 9.48205 34.4363C10.1476 35.0255 10.8525 35.5427 11.5889 35.9829C11.4772 35.9498 11.3622 35.921 11.2446 35.8979C10.4577 35.7467 9.65469 35.8416 8.7728 36.1919C8.17789 36.4291 7.62465 36.7774 7.08135 37.2569C7.03657 37.2962 7.03031 37.3639 7.0672 37.4108C7.25943 37.6554 7.50956 37.7924 7.72892 37.8941C8.26398 38.1427 8.868 38.3018 9.576 38.381C9.57809 38.3811 9.80558 38.4008 10.1246 38.4008C10.3549 38.4008 10.5692 38.3905 10.7612 38.3702C10.9447 38.3509 11.1278 38.3195 11.3054 38.2768C12.1212 38.0781 12.674 37.6698 12.9908 37.0358C12.9964 37.0303 13.0208 37.0162 13.0516 37.0086C13.1989 36.9721 13.3313 36.9463 13.4573 36.9295C13.487 36.9248 13.524 36.9327 13.5707 36.9516C14.1341 37.1686 14.7302 37.3494 15.3415 37.4889C15.3501 37.491 15.359 37.4921 15.368 37.4921C15.409 37.4921 15.4469 37.4694 15.4668 37.4325C15.5252 37.324 15.5963 37.2198 15.6781 37.1229C15.7037 37.0924 15.7114 37.0518 15.6988 37.0142C15.6866 36.9778 15.656 36.9502 15.6168 36.941Z" fill="white"/>
</svg>
